# Blender 3.4.1
# www.blender.org
mtllib puertaVanta.mtl
o puerta1
v -0.007796 -0.205352 0.015241
v -0.364677 -0.155592 0.023174
v -0.007796 0.203423 0.015241
v -0.364677 0.156986 0.023175
v -0.013844 -0.205352 0.009569
v -0.365153 -0.155592 -0.017963
v -0.013844 0.203423 0.009569
v -0.365153 0.156986 -0.017962
v 0.350354 -0.155592 0.014884
v -0.016563 -0.205352 0.001736
v -0.016563 0.203423 0.001737
v 0.350354 0.156986 0.014884
v 0.349878 -0.155592 -0.026253
v -0.015330 -0.205352 -0.006463
v 0.349878 0.156986 -0.026253
v -0.015330 0.203423 -0.006463
v -0.010429 -0.205352 -0.013149
v -0.010429 0.203423 -0.013149
v -0.002981 -0.205352 -0.016793
v -0.002981 0.203423 -0.016793
v 0.005308 -0.205352 -0.016557
v 0.005308 0.203423 -0.016557
v 0.012536 -0.205352 -0.012497
v 0.012536 0.203423 -0.012497
v 0.017051 -0.205352 -0.005543
v 0.017051 0.203423 -0.005543
v 0.017816 -0.205352 0.002713
v 0.017816 0.203423 0.002713
v 0.014657 -0.205352 0.010379
v 0.014657 0.203423 0.010379
v 0.008297 -0.205352 0.015698
v 0.008297 0.203423 0.015698
v 0.000194 -0.205352 0.017453
v 0.000194 0.203423 0.017453
v -0.007796 -0.155592 0.015241
v -0.007796 0.156986 0.015241
v -0.013844 -0.155592 0.009569
v -0.013844 0.156986 0.009569
v -0.016563 -0.155592 0.001736
v -0.016563 0.156986 0.001737
v -0.015330 -0.155592 -0.006463
v -0.015330 0.156986 -0.006463
v -0.010429 -0.155592 -0.013149
v -0.010429 0.156986 -0.013149
v -0.002981 -0.155592 -0.016793
v -0.002981 0.156986 -0.016793
v 0.005308 -0.155592 -0.016557
v 0.005308 0.156986 -0.016557
v 0.012536 -0.155592 -0.012497
v 0.012536 0.156986 -0.012497
v 0.017051 -0.155592 -0.005543
v 0.017051 0.156986 -0.005543
v 0.017729 0.156986 0.001775
v 0.017528 -0.155592 -0.000395
v 0.017816 -0.155592 0.002713
v 0.017816 0.156986 0.002713
v 0.014657 -0.155592 0.010379
v 0.014657 0.156986 0.010379
v 0.008297 -0.155592 0.015698
v 0.008297 0.156986 0.015698
v 0.000194 -0.155592 0.017453
v 0.000194 0.156986 0.017453
vn -0.6841 -0.0000 0.7294
vn -0.9447 -0.0000 0.3280
vn -0.9447 -0.0000 0.3279
vn -0.9889 -0.0000 -0.1487
vn -0.8065 -0.0000 -0.5912
vn -0.4395 -0.0000 -0.8983
vn 0.0285 -0.0000 -0.9996
vn 0.4897 -0.0000 -0.8719
vn 0.8387 -0.0000 -0.5446
vn 0.9957 -0.0000 -0.0926
vn 0.9957 -0.0000 -0.0923
vn 0.9246 -0.0000 0.3810
vn 0.6415 -0.0000 0.7671
vn -0.0000 1.0000 -0.0000
vn 0.2117 -0.0000 0.9773
vn -0.2668 -0.0000 0.9637
vn -0.0000 -1.0000 -0.0000
vn -0.9999 -0.0000 0.0116
vn -0.0116 -0.0000 -0.9999
vn 0.9999 -0.0000 -0.0116
vn 0.0116 -0.0000 0.9999
vt 1.000000 0.500000
vt 0.000000 0.500000
vt 0.750000 0.490000
vt 0.375000 0.000000
vt 0.375000 1.000000
vt 0.125000 0.750000
vt 1.000000 1.000000
vt 0.250000 0.490000
vt 0.000000 1.000000
vt 0.625000 0.000000
vt 0.625000 1.000000
vt 0.875000 0.750000
vt 0.923077 0.500000
vt 0.861534 0.462509
vt 0.375000 0.250000
vt 0.125000 0.500000
vt 0.923077 1.000000
vt 0.361534 0.462509
vt 0.625000 0.250000
vt 0.875000 0.500000
vt 0.375000 0.750000
vt 0.846154 0.500000
vt 0.947516 0.386336
vt 0.846154 1.000000
vt 0.447516 0.386336
vt 0.625000 0.750000
vt 0.375000 0.500000
vt 0.769231 0.500000
vt 0.988250 0.278929
vt 0.625000 0.500000
vt 0.769231 1.000000
vt 0.488250 0.278929
vt 0.692308 0.500000
vt 0.974404 0.164895
vt 0.692308 1.000000
vt 0.474404 0.164895
vt 0.615385 0.500000
vt 0.909149 0.070357
vt 0.615385 1.000000
vt 0.409149 0.070357
vt 0.538462 0.500000
vt 0.807436 0.016974
vt 0.538462 1.000000
vt 0.307436 0.016974
vt 0.461538 0.500000
vt 0.692564 0.016974
vt 0.461538 1.000000
vt 0.192564 0.016974
vt 0.384615 0.500000
vt 0.590851 0.070357
vt 0.384615 1.000000
vt 0.090851 0.070357
vt 0.307692 0.500000
vt 0.525596 0.164895
vt 0.307692 1.000000
vt 0.025596 0.164895
vt 0.230769 0.500000
vt 0.511750 0.278929
vt 0.230769 1.000000
vt 0.011750 0.278929
vt 0.153846 0.500000
vt 0.552484 0.386336
vt 0.052484 0.386336
vt 0.153846 1.000000
vt 0.076923 0.500000
vt 0.638466 0.462509
vt 0.138466 0.462509
vt 0.076923 1.000000
vt 1.000000 0.560864
vt 0.000000 0.560864
vt 0.249793 0.726937
vt 1.000000 0.943200
vt 0.000000 0.943200
vt 0.750207 0.726937
vt 0.923077 0.560864
vt 0.247702 0.692046
vt 0.923077 0.943200
vt 0.752298 0.692046
vt 0.846154 0.560864
vt 0.246783 0.644259
vt 0.846154 0.943200
vt 0.753217 0.644259
vt 0.769231 0.560864
vt 0.247247 0.594525
vt 0.769231 0.943200
vt 0.752753 0.594525
vt 0.692308 0.560864
vt 0.248988 0.554237
vt 0.692308 0.943200
vt 0.751012 0.554237
vt 0.615385 0.560864
vt 0.251607 0.532624
vt 0.615385 0.943200
vt 0.748393 0.532624
vt 0.538462 0.560864
vt 0.254503 0.534638
vt 0.538462 0.943200
vt 0.745497 0.534638
vt 0.461538 0.560864
vt 0.257014 0.559817
vt 0.461538 0.943200
vt 0.742986 0.559817
vt 0.384615 0.560864
vt 0.258564 0.602394
vt 0.384615 0.943200
vt 0.741436 0.602394
vt 0.316431 0.943200
vt 0.741229 0.646908
vt 0.336648 0.560864
vt 0.258710 0.633710
vt 0.307692 0.560864
vt 0.258798 0.652613
vt 0.307692 0.943200
vt 0.741202 0.652613
vt 0.230769 0.560864
vt 0.257662 0.698971
vt 0.230769 0.943200
vt 0.742338 0.698971
vt 0.153846 0.560864
vt 0.255418 0.730848
vt 0.153846 0.943200
vt 0.744582 0.730848
vt 0.076923 0.560864
vt 0.252578 0.740941
vt 0.076923 0.943200
vt 0.747422 0.740941
s 0
f 36/72/1 3/7/1 7/17/1 38/77/1
f 5/13/1 1/1/1 35/69/1 37/75/1
f 38/77/2 7/17/2 11/24/2 40/81/2
f 10/22/3 5/13/3 37/75/3 39/79/3
f 40/81/4 11/24/4 16/31/4 42/85/4
f 41/83/4 14/28/4 10/22/4 39/79/4
f 42/85/5 16/31/5 18/35/5 44/89/5
f 43/87/5 17/33/5 14/28/5 41/83/5
f 44/89/6 18/35/6 20/39/6 46/93/6
f 45/91/6 19/37/6 17/33/6 43/87/6
f 46/93/7 20/39/7 22/43/7 48/97/7
f 47/95/7 21/41/7 19/37/7 45/91/7
f 48/97/8 22/43/8 24/47/8 50/101/8
f 49/99/8 23/45/8 21/41/8 47/95/8
f 50/101/9 24/47/9 26/51/9 52/105/9
f 51/103/9 25/49/9 23/45/9 49/99/9
f 26/51/10 28/55/10 56/113/10 53/107/10 52/105/10
f 27/53/11 25/49/11 51/103/11 54/109/11 55/111/11
f 56/113/12 28/55/12 30/59/12 58/117/12
f 29/57/12 27/53/12 55/111/12 57/115/12
f 58/117/13 30/59/13 32/64/13 60/121/13
f 31/61/13 29/57/13 57/115/13 59/119/13
f 28/56/14 26/52/14 24/48/14 22/44/14 20/40/14 18/36/14 16/32/14 11/25/14 7/18/14 3/8/14 34/67/14 32/63/14 30/60/14
f 60/121/15 32/64/15 34/68/15 62/125/15
f 33/65/15 31/61/15 59/119/15 61/123/15
f 62/125/16 34/68/16 3/9/16 36/73/16
f 1/2/16 33/65/16 61/123/16 35/70/16
f 33/66/17 1/3/17 5/14/17 10/23/17 14/29/17 17/34/17 19/38/17 21/42/17 23/46/17 25/50/17 27/54/17 29/58/17 31/62/17
f 2/4/18 4/10/18 8/19/18 6/15/18
f 6/15/19 8/19/19 15/30/19 13/27/19
f 13/27/20 15/30/20 12/26/20 9/21/20
f 9/21/21 12/26/21 4/11/21 2/5/21
f 9/21/17 55/112/17 54/110/17 13/27/17
f 55/112/17 9/21/17 2/6/17 6/16/17 13/27/17 54/110/17 51/104/17 49/100/17 47/96/17 45/92/17 43/88/17 41/84/17 39/80/17 37/76/17 35/71/17 61/124/17 59/120/17 57/116/17
f 53/108/14 15/30/14 8/20/14 4/12/14 12/26/14 56/114/14 58/118/14 60/122/14 62/126/14 36/74/14 38/78/14 40/82/14 42/86/14 44/90/14 46/94/14 48/98/14 50/102/14 52/106/14
f 12/26/14 15/30/14 53/108/14 56/114/14
