# Blender 3.4.1
# www.blender.org
mtllib vanta.mtl
o vanta
v 0.000000 -0.264854 -0.052392
v -0.756060 -0.184211 -0.399085
v -0.728724 -0.184211 0.447054
v -0.756060 0.184211 -0.399085
v 0.746148 -0.184211 0.417323
v -0.728724 0.184211 0.447054
v 0.010379 -0.184211 0.854862
v 0.746148 0.184211 0.417323
v 0.000000 0.379208 -0.052392
v -0.746148 -0.184211 -0.417323
v -0.746148 0.184211 -0.417323
v 0.739363 -0.184211 -0.429230
v 0.756060 -0.184211 0.399085
v 0.739363 0.184211 -0.429230
v 0.010379 0.184211 0.854862
v 0.756060 0.184211 0.399085
v 0.024348 -0.264854 -0.046390
v -0.739363 -0.184211 0.429230
v -0.739363 0.184211 0.429230
v 0.010379 -0.184211 -0.854862
v 0.024348 0.379208 -0.046390
v 0.728724 -0.184211 -0.447054
v 0.728724 0.184211 -0.447054
v 0.010379 0.184211 -0.854862
v -0.010379 -0.184211 0.854862
v 0.043117 -0.264854 -0.029762
v -0.010379 0.184211 0.854862
v 0.043117 0.379208 -0.029762
v -0.010379 -0.184211 -0.854862
v 0.052010 -0.264854 -0.006315
v 0.052010 0.379208 -0.006315
v -0.010379 0.184211 -0.854862
v 0.048987 -0.264854 0.018578
v 0.048987 0.379208 0.018578
v 0.034742 -0.264854 0.039216
v 0.034742 0.379208 0.039216
v 0.012538 -0.264854 0.050869
v 0.012538 0.379208 0.050869
v -0.012538 -0.264854 0.050869
v -0.012538 0.379208 0.050869
v -0.034742 -0.264854 0.039216
v -0.034742 0.379208 0.039216
v -0.048987 -0.264854 0.018578
v -0.048987 0.379208 0.018578
v -0.052010 -0.264854 -0.006315
v -0.052010 0.379208 -0.006315
v -0.043117 -0.264854 -0.029762
v -0.043117 0.379208 -0.029762
v -0.024348 -0.264854 -0.046390
v -0.024348 0.379208 -0.046390
v 0.010379 0.184211 -0.049833
v 0.000000 -0.184211 -0.052392
v 0.000000 0.184211 -0.052392
v 0.010379 -0.184211 -0.049833
v 0.010379 -0.184211 0.050869
v 0.010379 0.184211 0.050869
v -0.010379 -0.184211 0.050869
v -0.010379 0.184211 0.050869
v -0.010379 0.184211 -0.049833
v -0.010379 -0.184211 -0.049833
v 0.037681 -0.184211 -0.034579
v 0.037681 0.184211 -0.034579
v 0.043117 -0.184211 -0.029762
v 0.043117 0.184211 -0.029762
v 0.048100 0.184211 -0.016623
v 0.048100 -0.184211 -0.016623
v -0.037866 0.184211 0.034689
v -0.037866 -0.184211 0.034689
v -0.048987 0.184211 0.018578
v -0.048987 -0.184211 0.018578
v -0.049148 -0.184211 0.017249
v -0.049148 0.184211 0.017249
v 0.049416 -0.184211 0.015043
v 0.049416 0.184211 0.015043
v 0.048987 -0.184211 0.018578
v 0.048987 0.184211 0.018578
v 0.039019 -0.184211 0.033019
v 0.039019 0.184211 0.033019
v -0.048822 0.184211 -0.014720
v -0.048822 -0.184211 -0.014720
v -0.043117 0.184211 -0.029762
v -0.043117 -0.184211 -0.029762
v -0.039281 0.184211 -0.033161
v -0.039281 -0.184211 -0.033161
vn 0.2393 -0.0000 -0.9709
vn 0.6631 -0.0000 -0.7485
vn 0.9350 -0.0000 -0.3546
vn 0.9927 -0.0000 0.1206
vn 0.8230 -0.0000 0.5680
vn 0.4647 -0.0000 0.8855
vn -0.0000 -0.0000 1.0000
vn -0.4647 -0.0000 0.8855
vn -0.8230 -0.0000 0.5680
vn -0.9927 -0.0000 0.1206
vn -0.9350 -0.0000 -0.3546
vn -0.0000 1.0000 -0.0000
vn -0.6631 -0.0000 -0.7485
vn -0.2393 -0.0000 -0.9709
vn -0.0000 -1.0000 -0.0000
vn 1.0000 -0.0000 -0.0000
vn -0.0000 -0.0000 -1.0000
vn -1.0000 -0.0000 -0.0000
vn 0.5125 -0.0000 0.8587
vn 0.8587 -0.0000 -0.5125
vn -0.5125 -0.0000 -0.8587
vn -0.8587 -0.0000 0.5125
vn -0.4775 -0.0000 0.8786
vn 0.8786 -0.0000 0.4775
vn 0.4775 -0.0000 -0.8786
vn -0.8786 -0.0000 -0.4775
vt 1.000000 0.500000
vt 0.357706 0.652720
vt 0.273451 0.560817
vt 0.387568 0.023348
vt 0.280056 0.761454
vt 0.610921 0.969017
vt 0.305385 0.023348
vt 0.035586 0.654309
vt 0.125000 0.750000
vt 0.352081 0.023348
vt 0.280056 0.796941
vt 0.875000 0.750000
vt 0.469752 0.453948
vt 0.362186 0.761454
vt 0.528738 0.492584
vt 0.269898 0.023348
vt 0.035586 0.689796
vt 0.875000 0.750000
vt 0.798485 0.023348
vt 0.177682 0.735469
vt 0.975443 0.499356
vt 0.434264 0.453948
vt 0.362186 0.796941
vt 0.875000 0.500000
vt 1.000000 1.000000
vt 0.109084 0.561382
vt 0.357706 0.714758
vt 0.551935 0.445888
vt 0.269897 0.761454
vt 0.598631 0.969017
vt 0.516448 0.445888
vt 0.269897 0.796941
vt 0.625000 0.750000
vt 0.223202 0.498021
vt 0.166603 0.653286
vt 0.845181 0.499976
vt 0.372150 0.761454
vt 0.634118 0.023348
vt 0.516448 0.492584
vt 0.187715 0.498021
vt 0.166603 0.688773
vt 0.875000 0.500000
vt 0.762997 0.023348
vt 0.177682 0.770957
vt 0.434264 0.976652
vt 0.372150 0.796941
vt 0.598631 0.023348
vt 0.625000 0.500000
vt 0.923077 0.500000
vt 0.119907 0.653286
vt 0.283296 0.549704
vt 0.141019 0.498309
vt 0.023348 0.654309
vt 0.375000 0.750000
vt 0.105531 0.498309
vt 0.023348 0.689796
vt 0.625000 0.750000
vt 0.680814 0.023348
vt 0.023348 0.736492
vt 0.916457 0.023348
vt 0.923077 1.000000
vt 0.119907 0.715324
vt 0.105531 0.575797
vt 0.178874 0.653286
vt 0.058835 0.023348
vt 0.857471 0.499976
vt 0.178874 0.688773
vt 0.023348 0.023348
vt 0.625000 0.500000
vt 0.716301 0.023348
vt 0.023348 0.771979
vt 0.875000 0.500000
vt 0.716301 0.849727
vt 0.166602 0.735469
vt 0.963153 0.499356
vt 0.105531 0.653286
vt 0.846154 0.500000
vt 0.297178 0.544439
vt 0.680814 0.849727
vt 0.166602 0.770957
vt 0.446554 0.976652
vt 0.105531 0.715324
vt 0.846154 1.000000
vt 0.109084 0.590213
vt 0.034277 0.736492
vt 0.798485 0.464727
vt 0.904167 0.023348
vt 0.769231 0.500000
vt 0.311916 0.546229
vt 0.769231 1.000000
vt 0.118929 0.601325
vt 0.034277 0.771979
vt 0.762997 0.464727
vt 0.625000 0.500000
vt 0.692308 0.500000
vt 0.311010 0.652720
vt 0.324134 0.554663
vt 0.692308 1.000000
vt 0.311010 0.714758
vt 0.132811 0.606590
vt 0.298119 0.652720
vt 0.331034 0.567809
vt 0.298119 0.714758
vt 0.147549 0.604800
vt 0.283282 0.652720
vt 0.331034 0.582655
vt 0.283282 0.714758
vt 0.159768 0.596367
vt 0.269898 0.652720
vt 0.051512 0.545575
vt 0.324134 0.595801
vt 0.269898 0.714758
vt 0.051512 0.607613
vt 0.166667 0.583221
vt 0.038189 0.545575
vt 0.311916 0.604235
vt 0.038189 0.607613
vt 0.166667 0.568374
vt 0.023348 0.545575
vt 0.307692 0.500000
vt 0.297178 0.606025
vt 0.023348 0.607613
vt 0.307692 1.000000
vt 0.159768 0.555228
vt 0.230769 0.500000
vt 0.283296 0.600760
vt 0.230769 1.000000
vt 0.147549 0.546794
vt 0.153846 0.500000
vt 0.273451 0.589647
vt 0.132811 0.545005
vt 0.153846 1.000000
vt 0.076923 0.500000
vt 0.372150 0.652720
vt 0.269898 0.575232
vt 0.118929 0.550270
vt 0.076923 1.000000
vt 0.372150 0.714758
vt 0.967209 0.848619
vt 0.716301 0.418540
vt 0.875000 0.617713
vt 1.000000 0.562605
vt 0.357706 0.660488
vt 0.910312 0.498455
vt 1.000000 0.848619
vt 0.357706 0.695975
vt 0.750000 0.617339
vt 0.967209 0.562605
vt 0.680814 0.418540
vt 0.916457 0.499969
vt 0.282130 0.660488
vt 0.798485 0.418032
vt 0.975443 0.023348
vt 0.282130 0.695975
vt 0.762997 0.418032
vt 0.434264 0.500644
vt 0.271050 0.660488
vt 0.716301 0.465236
vt 0.963153 0.023348
vt 0.271050 0.695975
vt 0.680814 0.465236
vt 0.446554 0.500644
vt 0.363863 0.695975
vt 0.762997 0.849714
vt 0.625000 0.617713
vt 0.363863 0.660488
vt 0.798485 0.849714
vt 0.904167 0.499969
vt 0.109695 0.661054
vt 0.058835 0.498878
vt 0.857471 0.023499
vt 0.109695 0.696541
vt 0.023348 0.498878
vt 0.625000 0.617678
vt 0.105531 0.661054
vt 0.846154 0.562605
vt 0.853372 0.024802
vt 0.105531 0.696541
vt 0.846154 0.848619
vt 0.708371 0.617356
vt 0.803049 0.848620
vt 0.187715 0.023348
vt 0.875000 0.617715
vt 0.803049 0.562605
vt 0.223202 0.023348
vt 0.845181 0.023348
vt 0.034934 0.588830
vt 0.269898 0.497744
vt 0.875000 0.632354
vt 0.034934 0.553343
vt 0.305385 0.497744
vt 0.125000 0.632354
vt 0.023348 0.588830
vt 0.307692 0.848619
vt 0.639746 0.632543
vt 0.023348 0.553343
vt 0.307692 0.562605
vt 0.360254 0.632543
vt 0.303584 0.562605
vt 0.141019 0.023348
vt 0.375000 0.632464
vt 0.303584 0.848619
vt 0.105531 0.023348
vt 0.625000 0.632464
vt 0.703231 0.562605
vt 0.634118 0.445754
vt 0.516448 0.968750
vt 0.703231 0.848619
vt 0.598631 0.445754
vt 0.625000 0.617601
vt 0.692308 0.562605
vt 0.311010 0.660488
vt 0.518408 0.967974
vt 0.692308 0.848619
vt 0.311010 0.695975
vt 0.664873 0.617409
vt 0.301990 0.660488
vt 0.469752 0.023348
vt 0.528738 0.969076
vt 0.301990 0.695975
vt 0.434264 0.023348
vt 0.875000 0.617682
vt 0.203193 0.848619
vt 0.352081 0.454015
vt 0.875000 0.632300
vt 0.203193 0.562605
vt 0.387568 0.454015
vt 0.610921 0.492450
vt 0.153846 0.848619
vt 0.683032 0.632618
vt 0.153846 0.562605
vt 0.601484 0.493735
vt 0.138122 0.848619
vt 0.516448 0.023348
vt 0.625000 0.632362
vt 0.138123 0.562605
vt 0.551935 0.023348
vt 0.598631 0.492700
s 0
usemtl Material.003
f 9/25/1 21/61/1 17/49/1 1/1/1 52/142/1 54/148/1 51/139/1 53/145/1
f 17/50/2 21/62/2 28/82/2 64/178/2 62/172/2 61/169/2 63/175/2 26/76/2
f 65/181/3 64/179/3 28/83/3 31/90/3 30/88/3 26/77/3 63/176/3 66/184/3
f 75/211/4 33/95/4 30/88/4 31/90/4 34/98/4 76/214/4 74/208/4 73/205/4
f 76/215/5 34/99/5 36/103/5 35/101/5 33/96/5 75/212/5 77/217/5 78/220/5
f 35/101/6 36/103/6 38/107/6 37/105/6
f 56/154/7 55/151/7 37/105/7 38/107/7 40/112/7 39/109/7 57/157/7 58/160/7
f 57/157/7 39/109/7 37/105/7 55/151/7
f 39/110/8 40/113/8 42/117/8 41/115/8
f 41/115/9 42/117/9 44/122/9 69/193/9 67/187/9 68/190/9 70/196/9 43/119/9
f 44/123/10 46/127/10 45/125/10 43/120/10 70/197/10 71/199/10 72/202/10 69/194/10
f 47/129/11 45/125/11 46/127/11 48/132/11 81/229/11 79/223/11 80/226/11 82/231/11
f 46/128/12 44/124/12 42/118/12 40/114/12 38/108/12 36/104/12 34/100/12 31/91/12 28/84/12 21/63/12 9/26/12 50/136/12 48/131/12
f 48/132/13 50/137/13 49/133/13 47/129/13 82/231/13 84/236/13 83/233/13 81/229/13
f 60/166/14 52/143/14 1/2/14 49/134/14 50/138/14 9/27/14 53/146/14 59/163/14
f 49/135/15 1/3/15 17/51/15 26/78/15 30/89/15 33/97/15 35/102/15 37/106/15 39/111/15 41/116/15 43/121/15 45/126/15 47/130/15
usemtl Material.002
f 15/43/16 7/19/16 55/152/16 56/155/16
f 20/58/16 24/70/16 51/140/16 54/149/16
f 29/85/17 32/92/17 24/71/17 20/59/17
f 32/93/18 29/86/18 60/167/18 59/164/18
f 25/73/18 27/79/18 58/161/18 57/158/18
f 7/20/7 15/44/7 27/80/7 25/74/7
f 29/87/15 20/60/15 54/150/15 52/144/15 60/168/15
f 55/153/15 7/21/15 25/75/15 57/159/15
f 53/147/12 51/141/12 24/72/12 32/94/12 59/165/12
f 58/162/12 27/81/12 15/45/12 56/156/12
f 6/16/19 3/7/19 68/191/19 67/188/19
f 12/34/19 14/40/19 65/182/19 66/185/19
f 22/64/20 23/67/20 14/41/20 12/35/20
f 23/68/21 22/65/21 61/170/21 62/173/21
f 18/52/21 19/55/21 72/203/21 71/200/21
f 3/8/22 6/17/22 19/56/22 18/53/22
f 61/171/15 22/66/15 12/36/15 66/186/15 63/177/15
f 70/198/15 68/192/15 3/9/15 18/54/15 71/201/15
f 64/180/12 65/183/12 14/42/12 23/69/12 62/174/12
f 69/195/12 72/204/12 19/57/12 6/18/12 67/189/12
f 4/10/23 2/4/23 80/227/23 79/224/23
f 5/13/23 8/22/23 78/221/23 77/218/23
f 13/37/24 16/46/24 8/23/24 5/14/24
f 16/47/25 13/38/25 73/206/25 74/209/25
f 10/28/25 11/31/25 83/234/25 84/237/25
f 2/5/26 4/11/26 11/32/26 10/29/26
f 13/39/15 5/15/15 77/219/15 75/213/15 73/207/15
f 80/228/15 2/6/15 10/30/15 84/238/15 82/232/15
f 78/222/12 8/24/12 16/48/12 74/210/12 76/216/12
f 81/230/12 83/235/12 11/33/12 4/12/12 79/225/12
