# Blender 3.4.1
# www.blender.org
mtllib Luna.mtl
o Luna
v 0.741248 0.150689 -0.147443
v 0.628400 0.150689 0.419883
v 0.419883 0.150689 0.628400
v 0.000000 -0.150689 0.358868
v 0.000000 -0.150689 0.755770
v 0.000000 0.150689 0.755770
v 0.000000 0.150689 0.358868
v -0.147443 -0.150689 0.344346
v -0.147443 -0.150689 0.741248
v -0.147443 0.150689 0.741248
v -0.147443 0.150689 0.344346
v -0.289221 -0.150689 0.301338
v -0.289221 -0.150689 0.698241
v -0.289221 0.150689 0.301338
v -0.289221 0.150689 0.698241
v -0.419883 -0.150689 0.628400
v -0.419883 -0.150689 0.231498
v -0.419883 0.150689 0.628400
v -0.419883 0.150689 0.231498
v -0.534410 -0.150689 0.534410
v -0.534410 -0.150689 0.137508
v -0.534410 0.150689 0.534410
v -0.534410 0.150689 0.137508
v -0.628400 -0.150689 0.419883
v -0.628400 -0.150689 0.022981
v -0.628400 0.150689 0.419883
v -0.628400 0.150689 0.022981
v -0.698241 -0.150689 0.289221
v -0.684145 -0.150689 -0.083491
v -0.698241 0.150689 0.289221
v -0.684145 0.150689 -0.083491
v -0.741248 -0.150689 0.147443
v -0.741248 0.150689 0.147443
v -0.745809 -0.150689 -0.096692
v -0.745809 0.150689 -0.096692
v -0.707542 0.150689 -0.133830
v -0.739975 0.150689 -0.124584
v -0.739975 -0.150689 -0.124584
v -0.707542 -0.150689 -0.133830
v -0.748570 -0.150689 0.073100
v -0.748037 -0.150689 -0.073100
v -0.748570 -0.150689 0.000000
v -0.748037 0.150689 -0.073100
v -0.748570 0.150689 0.073100
v -0.748570 0.150689 0.000000
v -0.720090 0.150689 -0.141740
v -0.731952 0.150689 -0.138936
v -0.731952 -0.150689 -0.138936
v -0.720090 -0.150689 -0.141740
v -0.741248 0.150689 -0.147443
v -0.628400 0.150689 0.419883
v -0.419883 0.150689 0.628400
v 0.000000 -0.150689 0.358868
v 0.000000 -0.150689 0.755770
v 0.000000 0.150689 0.755770
v 0.000000 0.150689 0.358868
v 0.147443 -0.150689 0.344346
v 0.147443 -0.150689 0.741248
v 0.147443 0.150689 0.741248
v 0.147443 0.150689 0.344346
v 0.289221 -0.150689 0.301338
v 0.289221 -0.150689 0.698241
v 0.289221 0.150689 0.301338
v 0.289221 0.150689 0.698241
v 0.419883 -0.150689 0.628400
v 0.419883 -0.150689 0.231498
v 0.419883 0.150689 0.628400
v 0.419883 0.150689 0.231498
v 0.534410 -0.150689 0.534410
v 0.534410 -0.150689 0.137508
v 0.534410 0.150689 0.534410
v 0.534410 0.150689 0.137508
v 0.628400 -0.150689 0.419883
v 0.628400 -0.150689 0.022981
v 0.628400 0.150689 0.419883
v 0.628400 0.150689 0.022981
v 0.698241 -0.150689 0.289221
v 0.684145 -0.150689 -0.083491
v 0.698241 0.150689 0.289221
v 0.684145 0.150689 -0.083491
v 0.741248 -0.150689 0.147443
v 0.741248 0.150689 0.147443
v 0.745809 -0.150689 -0.096692
v 0.745809 0.150689 -0.096692
v 0.707542 0.150689 -0.133830
v 0.739975 0.150689 -0.124584
v 0.739975 -0.150689 -0.124584
v 0.707542 -0.150689 -0.133830
v 0.748570 -0.150689 0.073100
v 0.748037 -0.150689 -0.073100
v 0.748570 -0.150689 0.000000
v 0.748037 0.150689 -0.073100
v 0.748570 0.150689 0.073100
v 0.748570 0.150689 0.000000
v 0.720090 0.150689 -0.141740
v 0.731952 0.150689 -0.138936
v 0.731952 -0.150689 -0.138936
v 0.720090 -0.150689 -0.141740
vn -0.0980 -0.0000 0.9952
vn -0.2903 -0.0000 0.9569
vn -0.4714 -0.0000 0.8819
vn -0.6344 -0.0000 0.7730
vn -0.7730 -0.0000 0.6344
vn -0.8819 -0.0000 0.4714
vn -0.9569 -0.0000 0.2903
vn -0.9952 -0.0000 0.0980
vn 0.9068 -0.0000 -0.4215
vn 0.0980 -0.0000 -0.9952
vn 0.2903 -0.0000 -0.9569
vn 0.4714 -0.0000 -0.8819
vn 0.6344 -0.0000 -0.7730
vn 0.7730 -0.0000 -0.6344
vn 0.8859 -0.0000 -0.4638
vn -0.0000 -1.0000 -0.0000
vn 1.0000 -0.0000 -0.0000
vn -0.9788 -0.0000 -0.2047
vn -0.8729 -0.0000 -0.4879
vn -0.0000 1.0000 -0.0000
vn -1.0000 -0.0000 -0.0000
vn -1.0000 -0.0000 -0.0073
vn -0.9956 -0.0000 -0.0940
vn -0.2300 -0.0000 -0.9732
vn 0.5333 -0.0000 -0.8459
vn 0.0980 -0.0000 0.9952
vn 0.2903 -0.0000 0.9569
vn 0.4714 -0.0000 0.8819
vn 0.6344 -0.0000 0.7730
vn 0.7730 -0.0000 0.6344
vn 0.8819 -0.0000 0.4714
vn 0.9569 -0.0000 0.2903
vn 0.9952 -0.0000 0.0980
vn -0.9068 -0.0000 -0.4215
vn -0.0980 -0.0000 -0.9952
vn -0.2903 -0.0000 -0.9569
vn -0.4714 -0.0000 -0.8819
vn -0.6344 -0.0000 -0.7730
vn -0.7730 -0.0000 -0.6344
vn -0.8859 -0.0000 -0.4638
vn 0.9788 -0.0000 -0.2047
vn 0.8729 -0.0000 -0.4879
vn 1.0000 -0.0000 -0.0073
vn 0.9956 -0.0000 -0.0940
vn 0.2300 -0.0000 -0.9732
vn -0.5333 -0.0000 -0.8459
vt 0.500000 0.500000
vt 0.500000 0.500000
vt 0.500000 1.000000
vt 0.500000 1.000000
vt 0.468750 0.500000
vt 0.468750 0.500000
vt 0.468750 1.000000
vt 0.468750 1.000000
vt 0.437500 0.500000
vt 0.437500 0.500000
vt 0.437500 1.000000
vt 0.437500 1.000000
vt 0.406250 0.500000
vt 0.406250 0.500000
vt 0.406250 1.000000
vt 0.406250 1.000000
vt 0.375000 0.500000
vt 0.375000 0.500000
vt 0.375000 1.000000
vt 0.375000 1.000000
vt 0.343750 0.500000
vt 0.343750 0.500000
vt 0.343750 1.000000
vt 0.343750 1.000000
vt 0.312500 0.500000
vt 0.312500 0.500000
vt 0.312500 1.000000
vt 0.312500 1.000000
vt 0.281250 0.500000
vt 0.281250 1.000000
vt 0.218750 0.500000
vt 0.218750 1.000000
vt 0.261067 1.000000
vt 0.302699 1.000000
vt 0.217713 1.000000
vt 0.217713 0.500000
vt 0.261067 0.500000
vt 0.302699 0.500000
vt 0.265493 0.500000
vt 0.234507 0.500000
vt 0.251544 0.500000
vt 0.234507 1.000000
vt 0.265493 1.000000
vt 0.251544 1.000000
vt 0.244381 1.000000
vt 0.207507 1.000000
vt 0.295675 1.000000
vt 0.227959 1.000000
vt 0.212241 1.000000
vt 0.227959 0.500000
vt 0.212241 0.500000
vt 0.244381 0.500000
vt 0.207507 0.500000
vt 0.295675 0.500000
vt 0.500000 0.500000
vt 0.500000 0.500000
vt 0.500000 1.000000
vt 0.500000 1.000000
vt 0.468750 0.500000
vt 0.468750 0.500000
vt 0.468750 1.000000
vt 0.468750 1.000000
vt 0.437500 0.500000
vt 0.437500 0.500000
vt 0.437500 1.000000
vt 0.437500 1.000000
vt 0.406250 0.500000
vt 0.406250 0.500000
vt 0.406250 1.000000
vt 0.406250 1.000000
vt 0.375000 0.500000
vt 0.375000 0.500000
vt 0.375000 1.000000
vt 0.375000 1.000000
vt 0.343750 0.500000
vt 0.343750 0.500000
vt 0.343750 1.000000
vt 0.343750 1.000000
vt 0.312500 0.500000
vt 0.312500 0.500000
vt 0.312500 1.000000
vt 0.312500 1.000000
vt 0.281250 0.500000
vt 0.281250 1.000000
vt 0.218750 0.500000
vt 0.218750 1.000000
vt 0.261067 1.000000
vt 0.302699 1.000000
vt 0.217713 1.000000
vt 0.217713 0.500000
vt 0.261067 0.500000
vt 0.302699 0.500000
vt 0.265493 0.500000
vt 0.234507 0.500000
vt 0.251544 0.500000
vt 0.234507 1.000000
vt 0.265493 1.000000
vt 0.251544 1.000000
vt 0.244381 1.000000
vt 0.207507 1.000000
vt 0.295675 1.000000
vt 0.227959 1.000000
vt 0.212241 1.000000
vt 0.227959 0.500000
vt 0.212241 0.500000
vt 0.244381 0.500000
vt 0.207507 0.500000
vt 0.295675 0.500000
s 0
usemtl Material.001
f 5/2/1 6/3/1 10/7/1 9/6/1
f 9/6/2 10/7/2 15/12/2 13/10/2
f 13/10/3 15/12/3 18/15/3 16/13/3
f 16/13/4 18/15/4 22/19/4 20/17/4
f 20/17/5 22/19/5 26/23/5 24/21/5
f 24/21/6 26/23/6 30/27/6 28/25/6
f 28/25/7 30/27/7 33/30/7 32/29/7
f 32/29/8 33/30/8 44/43/8 40/39/8
f 34/31/18 35/32/18 37/35/18 38/36/18
f 47/49/19 48/51/19 38/36/19 37/35/19
f 40/39/21 44/43/21 45/44/21 42/41/21
f 42/41/22 45/44/22 43/42/22 41/40/22
f 41/40/23 43/42/23 35/32/23 34/31/23
f 48/51/24 47/49/24 46/46/24 49/53/24
f 54/56/26 58/60/26 59/61/26 55/57/26
f 58/60/27 62/64/27 64/66/27 59/61/27
f 62/64/28 65/67/28 67/69/28 64/66/28
f 65/67/29 69/71/29 71/73/29 67/69/29
f 69/71/30 73/75/30 75/77/30 71/73/30
f 73/75/31 77/79/31 79/81/31 75/77/31
f 77/79/32 81/83/32 82/84/32 79/81/32
f 81/83/33 89/93/33 93/97/33 82/84/33
f 83/85/41 87/90/41 86/89/41 84/86/41
f 96/103/42 86/89/42 87/90/42 97/105/42
f 89/93/17 91/95/17 94/98/17 93/97/17
f 91/95/43 90/94/43 92/96/43 94/98/43
f 90/94/44 83/85/44 84/86/44 92/96/44
f 97/105/45 98/107/45 95/100/45 96/103/45
usemtl 
f 39/38/9 36/34/9 31/28/9 29/26/9
f 4/1/10 8/5/10 11/8/10 7/4/10
f 14/11/11 11/8/11 8/5/11 12/9/11
f 19/16/12 14/11/12 12/9/12 17/14/12
f 17/14/13 21/18/13 23/20/13 19/16/13
f 23/20/14 21/18/14 25/22/14 27/24/14
f 29/26/15 31/28/15 27/24/15 25/22/15
f 38/36/16 48/50/16 49/52/16 39/37/16 29/26/16 25/22/16 21/18/16 17/14/16 12/9/16 8/5/16 4/1/16 5/2/16 9/6/16 13/10/16 16/13/16 20/17/16 24/21/16 28/25/16 32/29/16 40/39/16 42/41/16 41/40/16 34/31/16
f 5/2/17 4/1/17 7/4/17 6/3/17
f 36/33/20 46/45/20 47/48/20 37/35/20 35/32/20 43/42/20 45/44/20 44/43/20 33/30/20 30/27/20 26/23/20 22/19/20 18/15/20 15/12/20 10/7/20 6/3/20 7/4/20 11/8/20 14/11/20 19/16/20 23/20/20 27/24/20 31/28/20
f 36/34/25 39/38/25 49/54/25 46/47/25
f 88/92/34 78/80/34 80/82/34 85/88/34
f 53/55/35 56/58/35 60/62/35 57/59/35
f 63/65/36 61/63/36 57/59/36 60/62/36
f 68/70/37 66/68/37 61/63/37 63/65/37
f 66/68/38 68/70/38 72/74/38 70/72/38
f 72/74/39 76/78/39 74/76/39 70/72/39
f 78/80/40 74/76/40 76/78/40 80/82/40
f 87/90/16 83/85/16 90/94/16 91/95/16 89/93/16 81/83/16 77/79/16 73/75/16 69/71/16 65/67/16 62/64/16 58/60/16 54/56/16 53/55/16 57/59/16 61/63/16 66/68/16 70/72/16 74/76/16 78/80/16 88/91/16 98/106/16 97/104/16
f 54/56/21 55/57/21 56/58/21 53/55/21
f 85/87/20 80/82/20 76/78/20 72/74/20 68/70/20 63/65/20 60/62/20 56/58/20 55/57/20 59/61/20 64/66/20 67/69/20 71/73/20 75/77/20 79/81/20 82/84/20 93/97/20 94/98/20 92/96/20 84/86/20 86/89/20 96/102/20 95/99/20
f 85/88/46 95/101/46 98/108/46 88/92/46
